<svg width="1024" height="1024" viewBox="0 0 1024 1024" fill="none" xmlns="http://www.w3.org/2000/svg">
<g clip-path="url(#clip0_1_2)">
<path d="M864 0H160C71.6344 0 0 71.6344 0 160V864C0 952.366 71.6344 1024 160 1024H864C952.366 1024 1024 952.366 1024 864V160C1024 71.6344 952.366 0 864 0Z" fill="#363E96"/>
<path d="M864 0H160C71.6344 0 0 71.6344 0 160V864C0 952.366 71.6344 1024 160 1024H864C952.366 1024 1024 952.366 1024 864V160C1024 71.6344 952.366 0 864 0Z" fill="url(#paint0_radial_1_2)"/>
<path d="M439.992 400.543C474.877 400.543 503.157 372.263 503.157 337.378C503.157 302.493 474.877 274.213 439.992 274.213C405.106 274.213 376.826 302.493 376.826 337.378C376.826 372.263 405.106 400.543 439.992 400.543Z" fill="white"/>
<path d="M215.123 446.022L341.454 395.49L596.641 501.608L525.896 572.353L432.412 554.667L154.485 769.429H61L270.709 526.874L174.697 564.773L215.123 446.022Z" fill="white"/>
<path d="M295.975 650.678L384.406 590.039L457.678 638.045L381.88 769.429H278.289L333.874 675.944L295.975 650.678Z" fill="white"/>
<path d="M712.866 274.213C712.866 263.05 703.816 254 692.653 254C681.489 254 672.44 263.05 672.44 274.213V749.216C672.44 760.379 681.489 769.429 692.653 769.429C703.816 769.429 712.866 760.379 712.866 749.216V274.213Z" fill="white"/>
<path d="M738.132 274.213L963 394.227L738.132 514.241V274.213Z" fill="white"/>
</g>
<defs>
<radialGradient id="paint0_radial_1_2" cx="0" cy="0" r="1" gradientUnits="userSpaceOnUse" gradientTransform="translate(512 430.08) scale(563.2)">
<stop stop-color="#2F80FF" stop-opacity="0.35"/>
<stop offset="1" stop-color="#2F80FF" stop-opacity="0"/>
</radialGradient>
<clipPath id="clip0_1_2">
<rect width="1024" height="1024" fill="white"/>
</clipPath>
</defs>
</svg>
